<?xml version="1.0" encoding="UTF-8" standalone="no"?>
<svg
   svg:contrastcolor="002d2b"
   svg:template="Contrast"
   svg:presentation="2.5"
   svg:layouttype="undefined"
   svg:specialfontid="undefined"
   svg:id1="378"
   svg:id2="248"
   svg:companyname="Market Idea"
   svg:companytagline=""
   version="1.1"
   viewBox="0 0 550 470"
   class="svg-image-fade"
   id="svg41"
   sodipodi:docname="logo.svg"
   inkscape:version="1.2.2 (732a01da63, 2022-12-09)"
   xmlns:inkscape="http://www.inkscape.org/namespaces/inkscape"
   xmlns:sodipodi="http://sodipodi.sourceforge.net/DTD/sodipodi-0.dtd"
   xmlns="http://www.w3.org/2000/svg"
   xmlns:svg="http://www.w3.org/2000/svg">
  <sodipodi:namedview
     id="namedview43"
     pagecolor="#ffffff"
     bordercolor="#999999"
     borderopacity="1"
     inkscape:showpageshadow="0"
     inkscape:pageopacity="0"
     inkscape:pagecheckerboard="0"
     inkscape:deskcolor="#d1d1d1"
     showgrid="false"
     inkscape:zoom="0.91914894"
     inkscape:cx="277.97454"
     inkscape:cy="347.60417"
     inkscape:window-width="1841"
     inkscape:window-height="1051"
     inkscape:window-x="-9"
     inkscape:window-y="-9"
     inkscape:window-maximized="1"
     inkscape:current-layer="g37" />
  <defs
     style="fill: rgb(255, 255, 255);"
     id="defs7">
    <linearGradient
       x1="117.29917"
       y1="235"
       x2="432.70083"
       y2="235"
       gradientUnits="userSpaceOnUse"
       id="color-16013674926"
       style="fill: rgb(255, 255, 255);">
      <stop
         offset="0"
         stop-color="#00968f"
         style="fill: rgb(255, 255, 255);"
         id="stop2" />
      <stop
         offset="1"
         stop-color="#00fff4"
         style="fill: rgb(255, 255, 255);"
         id="stop4" />
    </linearGradient>
  </defs>
  <g
     fill="url(#color-16013674926)"
     fill-rule="nonzero"
     stroke="none"
     stroke-width="1"
     stroke-linecap="butt"
     stroke-linejoin="miter"
     stroke-miterlimit="10"
     stroke-dasharray=""
     stroke-dashoffset="0"
     font-family="none"
     font-weight="none"
     font-size="none"
     text-anchor="none"
     style="mix-blend-mode: normal; fill: rgb(255, 255, 255);"
     id="g39">
    <g
       data-paper-data="{&quot;isGlobalGroup&quot;:true,&quot;bounds&quot;:{&quot;x&quot;:117.29916646820892,&quot;y&quot;:115,&quot;width&quot;:315.4016670635822,&quot;height&quot;:240}}"
       style="fill: rgb(255, 255, 255);"
       id="g37">
      <g
         data-paper-data="{&quot;isSecondaryText&quot;:true}"
         style="fill:#ffffff"
         id="g17"
         transform="matrix(1.6878349,0,0,1.8271374,-190.01725,-194.15196)">
        <path
           d="m 233.11036,345.38714 v 1.61264 h 1.14649 v 6.40017 h -1.14649 v 1.60004 h 3.93081 v -1.60004 h -1.17169 v -6.40017 h 1.17169 v -1.61264 z"
           data-paper-data="{&quot;glyphName&quot;:&quot;I&quot;,&quot;glyphIndex&quot;:0,&quot;firstGlyphOfWord&quot;:true,&quot;word&quot;:1}"
           style="fill:#ffffff"
           id="path9" />
        <path
           d="m 258.23131,345.38714 h -2.57015 V 355 h 2.57015 c 2.64574,0 4.80013,-2.15439 4.80013,-4.80013 0,-2.65834 -2.15439,-4.81273 -4.80013,-4.81273 z m 0,8.00022 h -0.95751 v -6.38757 h 0.95751 c 1.75123,0 3.18749,1.43626 3.18749,3.20009 0,1.75123 -1.43626,3.18749 -3.18749,3.18749 z"
           data-paper-data="{&quot;glyphName&quot;:&quot;D&quot;,&quot;glyphIndex&quot;:1,&quot;word&quot;:1}"
           style="fill:#ffffff"
           id="path11" />
        <path
           d="m 282.57385,355 h 6.23639 v -1.60004 h -4.62375 v -2.98591 h 3.47726 v -1.60004 h -3.47726 v -1.82682 h 4.62375 v -1.61264 h -6.23639 z"
           data-paper-data="{&quot;glyphName&quot;:&quot;E&quot;,&quot;glyphIndex&quot;:2,&quot;word&quot;:1}"
           style="fill:#ffffff"
           id="path13" />
        <path
           d="m 308.1713,355 h 1.63784 l 0.51655,-1.17169 h 4.42217 L 315.26441,355 h 1.62524 l -4.35917,-9.87743 z m 4.35917,-6.17339 1.49925,3.37647 h -2.98591 z"
           data-paper-data="{&quot;glyphName&quot;:&quot;A&quot;,&quot;glyphIndex&quot;:3,&quot;lastGlyphOfWord&quot;:true,&quot;word&quot;:1}"
           style="fill:#ffffff"
           id="path15" />
      </g>
      <g
         data-paper-data="{&quot;isPrimaryText&quot;:true}"
         style="fill:#ffffff"
         id="g31"
         transform="matrix(1.6878349,0,0,1.8271374,-190.01725,-194.15196)">
        <path
           d="m 161.52203,305.84607 v 19.00708 l -14.01219,-9.55914 z m -38.30755,0.0379 39.19722,26.7372 h 4.0721 c 0.59626,-0.55131 0.95355,-1.33213 0.95355,-2.16737 v -30.16808 c 0,-0.7477 -0.29577,-1.4386 -0.78319,-1.97335 h -4.53586 l -19.86835,13.397 -19.63883,-13.397 h -4.53113 c -0.48269,0.53474 -0.78082,1.22565 -0.78082,1.97335 v 32.33545 h 5.91531 z"
           data-paper-data="{&quot;glyphName&quot;:&quot;M&quot;,&quot;glyphIndex&quot;:0,&quot;firstGlyphOfWord&quot;:true,&quot;word&quot;:1}"
           style="fill:#ffffff"
           id="path19" />
        <path
           d="m 184.86911,326.69872 h -6.97533 l 14.95627,-21.49861 3.57048,5.13449 z m 34.21652,5.85379 -23.80794,-34.21889 c -0.005,-0.009 -0.0142,-0.0142 -0.0189,-0.0213 h -4.81506 c -0.007,0.007 -0.0142,0.0118 -0.0213,0.0213 l -20.61841,29.63334 c -0.62939,0.90386 -0.70274,2.08219 -0.19402,3.0594 0.51108,0.97484 1.52142,1.58767 2.62167,1.58767 h 14.16835 c 0.96065,0 1.86214,-0.46613 2.41581,-1.25168 l 11.19887,-15.8625 11.91344,17.12128 h 7.05578 z"
           data-paper-data="{&quot;glyphName&quot;:&quot;A&quot;,&quot;glyphIndex&quot;:1,&quot;word&quot;:1}"
           style="fill:#ffffff"
           id="path21" />
        <path
           d="m 226.65062,312.50671 v -8.28144 h 35.67879 c 2.13424,0 3.80473,1.81718 3.80473,4.14072 0,2.20523 -1.98754,4.14072 -4.25666,4.14072 z m 42.47429,2.82042 c 1.79352,-1.82428 2.92453,-4.28742 2.92453,-6.96114 0,-5.63847 -4.26849,-10.05603 -9.72004,-10.05603 h -38.63644 c -1.63499,0 -2.95766,1.32266 -2.95766,2.95766 v 31.35351 h 5.91531 v -14.19911 h 35.22686 0.45193 c 2.13424,0 3.80473,1.81718 3.80473,4.14072 v 10.05839 h 5.91531 v -10.05839 c 0,-2.87247 -1.11681,-5.42079 -2.92453,-7.23561 z"
           data-paper-data="{&quot;glyphName&quot;:&quot;R&quot;,&quot;glyphIndex&quot;:2,&quot;word&quot;:1}"
           style="fill:#ffffff"
           id="path23" />
        <path
           d="m 308.43503,315.26797 16.96038,-16.95801 h -8.36425 L 302.877,312.46175 c -0.51581,-0.0804 -1.034,-0.15143 -1.56401,-0.15143 h -8.09688 v 5.91531 h 8.09688 c 1.09078,0 2.15554,0.4401 2.9269,1.21146 l 13.18168,13.18168 h 8.11817 l 0.12304,-0.12304 -17.22775,-17.22775 z m -29.1199,17.35316 h 5.91531 v -34.31117 h -5.91531 z"
           data-paper-data="{&quot;glyphName&quot;:&quot;K&quot;,&quot;glyphIndex&quot;:3,&quot;word&quot;:1}"
           style="fill:#ffffff"
           id="path25" />
        <path
           d="m 378.96108,318.228 v -5.91531 h -44.22523 c -1.63499,0 -2.95766,1.32266 -2.95766,2.95766 v 14.39313 c 0,1.63263 1.32266,2.95766 2.95766,2.95766 h 44.22523 v -5.91531 h -41.26757 v -8.47782 h 41.26757 z m -0.002,-19.91567 H 342.6509 v 5.91531 h 36.30818 z"
           data-paper-data="{&quot;glyphName&quot;:&quot;E&quot;,&quot;glyphIndex&quot;:4,&quot;word&quot;:1}"
           style="fill:#ffffff"
           id="path27" />
        <path
           d="m 432.70083,298.30996 h -27.43285 -13.17931 -4.78904 v 5.91531 h 4.78904 13.17931 c 0.97721,0 1.77459,0.79738 1.77459,1.77459 v 2.96002 23.66124 h 5.91531 v -23.66124 -2.96002 -1.77459 h 19.74294 v -5.91531 z"
           data-paper-data="{&quot;glyphName&quot;:&quot;T&quot;,&quot;glyphIndex&quot;:5,&quot;lastGlyphOfWord&quot;:true,&quot;word&quot;:1}"
           style="fill:#ffffff"
           id="path29" />
      </g>
      <g
         data-paper-data="{&quot;isIcon&quot;:&quot;true&quot;,&quot;iconType&quot;:&quot;icon&quot;,&quot;rawIconId&quot;:&quot;5e21cd22-8b33-47a3-824f-debc10f65b3b&quot;,&quot;selectedEffects&quot;:{&quot;container&quot;:&quot;&quot;,&quot;transformation&quot;:&quot;&quot;,&quot;pattern&quot;:&quot;&quot;},&quot;isDetailed&quot;:false,&quot;fillRule&quot;:&quot;nonzero&quot;,&quot;bounds&quot;:{&quot;x&quot;:217.52297462060562,&quot;y&quot;:115,&quot;width&quot;:114.95405075878875,&quot;height&quot;:154.92459670995788},&quot;iconStyle&quot;:&quot;standalone&quot;,&quot;suitableAsStandaloneIcon&quot;:true}"
         style="fill:#ffffff"
         id="g35"
         transform="matrix(1.6878349,0,0,1.8271374,-190.01725,-194.15196)">
        <path
           d="m 217.52297,115 v 154.9246 h 28.81597 v -85.36345 l 22.92884,22.92884 v -40.74517 z m 63.20924,51.74482 v 11.46442 29.28075 l 22.92884,-22.92884 v 85.36345 h 28.81597 V 115 Z"
           data-paper-data="{&quot;isPathIcon&quot;:true}"
           style="fill:#ffffff"
           id="path33" />
      </g>
    </g>
  </g>
</svg>
